DBRep_DrawableShape

CASCADE Topology V3, (c) Open Cascade
Locations 0
Curve2ds 6
2 0 0 1 0 -0 1 15
7 0 0  1 2 2  -3.1416126535897932 10  3.1416126535897932 10 
 0 2 6.2831853071795862 2
1 3.1415926535897931 0 0 1 
1 -3.1415926535897931 0 0 1 
2 0 0 1 0 -0 1 15
1 -3.1415926535897931 0 1 0 
Curves 3
2 0 0 10 0 0 1 1 0 -0 -0 1 0 15
1 15 -3.67394039744206e-15 0 0 0 1 
2 0 0 0 0 0 1 1 0 -0 -0 1 0 15
Polygon3D 0
PolygonOnTriangulations 0
Surfaces 3
2 0 0 0 0 0 1 -1 1.2246467991473532e-16 0 -1.2246467991473532e-16 -1 0 15
1 0 0 10 0 0 1 1 0 -0 -0 1 0 
1 0 0 0 0 0 1 1 0 -0 -0 1 0 
Triangulations 0

TShapes 13
Ve
0.001
15 -3.67394039744206e-15 10
0 0

0101101
*
Ed
 0.001 1 1 0
1  1 0 0 6.28318530717959
2  1 2 0 0 6.28318530717959
2  2 1 0 0 6.28318530717959
0

0101000
+13 0 -13 0 *
Ve
1e-07
15 -3.67394039744206e-15 0
0 0

0101101
*
Ed
 1e-07 1 1 0
1  2 0 0 10
3  3 4C0 1 0 0 10
0

0101000
-13 0 +11 0 *
Ed
 1e-07 1 1 0
1  3 0 0 6.28318530717959
2  5 3 0 0 6.28318530717959
2  6 1 0 0 6.28318530717959
0

0101000
+11 0 -11 0 *
Wi

0101100
-12 0 +10 0 +9 0 -10 0 *
Fa
0  1e-07 1 0

0111000
+8 0 *
Wi

0101100
+12 0 *
Fa
0  1e-07 2 0

0111000
+6 0 *
Wi

0101100
-9 0 *
Fa
0  1e-07 3 0

0111000
-4 0 *
Sh

0101100
+7 0 +5 0 -3 0 *
So

1100000
+2 0 *

+1 0 